HIERARCHY
ROOT Hips
{
 OFFSET 0.000000 0.000000 0.000000
 CHANNELS 6 Xposition Yposition Zposition Yrotation Xrotation Zrotation
 JOINT Chest
 {
  OFFSET 0.000000 9.581000 -0.001100
  CHANNELS 3 Yrotation Xrotation Zrotation
  JOINT Chest2
  {
   OFFSET 0.000000 9.561100 0.002200
   CHANNELS 3 Yrotation Xrotation Zrotation
   JOINT Chest3
   {
    OFFSET 0.000000 9.521100 0.000000
    CHANNELS 3 Yrotation Xrotation Zrotation
    JOINT Chest4
    {
     OFFSET 0.000000 9.511400 0.000000
     CHANNELS 3 Yrotation Xrotation Zrotation
     JOINT Neck
     {
      OFFSET 0.000000 14.375100 0.000000
      CHANNELS 3 Yrotation Xrotation Zrotation
      JOINT Head
      {
       OFFSET 0.000000 8.901200 0.004600
       CHANNELS 3 Yrotation Xrotation Zrotation
       End Site
       {
        OFFSET 0.000000 16.962200 0.002400
       }
      }
     }
     JOINT RightCollar
     {
      OFFSET -2.920100 9.518800 0.000000
      CHANNELS 3 Yrotation Xrotation Zrotation
      JOINT RightShoulder
      {
       OFFSET -13.664500 0.000000 0.000000
       CHANNELS 3 Yrotation Xrotation Zrotation
       JOINT RightElbow
       {
        OFFSET 0.000000 -29.999200 0.000000
        CHANNELS 3 Yrotation Xrotation Zrotation
        JOINT RightWrist
        {
         OFFSET 0.000000 -24.253600 0.000000
         CHANNELS 3 Yrotation Xrotation Zrotation
         End Site
         {
          OFFSET 0.000000 -17.918900 0.000000
         }
        }
       }
      }
     }
     JOINT LeftCollar
     {
      OFFSET 2.920100 9.518800 0.000000
      CHANNELS 3 Yrotation Xrotation Zrotation
      JOINT LeftShoulder
      {
       OFFSET 13.664500 0.000000 0.000000
       CHANNELS 3 Yrotation Xrotation Zrotation
       JOINT LeftElbow
       {
        OFFSET 0.000000 -29.999200 0.000000
        CHANNELS 3 Yrotation Xrotation Zrotation
        JOINT LeftWrist
        {
         OFFSET 0.000000 -24.253600 0.000000
         CHANNELS 3 Yrotation Xrotation Zrotation
         End Site
         {
          OFFSET 0.000000 -17.918900 0.000000
         }
        }
       }
      }
     }
    }
   }
  }
 }
 JOINT RightHip
 {
  OFFSET -7.797300 0.005300 0.000500
  CHANNELS 3 Yrotation Xrotation Zrotation
  JOINT RightKnee
  {
   OFFSET 0.000000 -40.663400 -0.000500
   CHANNELS 3 Yrotation Xrotation Zrotation
   JOINT RightAnkle
   {
    OFFSET 0.000000 -39.523700 -0.000900
    CHANNELS 3 Yrotation Xrotation Zrotation
    JOINT RightToe
    {
     OFFSET 0.000000 -6.418000 14.485300
     CHANNELS 3 Yrotation Xrotation Zrotation
     End Site
     {
      OFFSET 0.000000 -1.465200 6.326400
     }
    }
   }
  }
 }
 JOINT LeftHip
 {
  OFFSET 7.797300 0.005300 0.000500
  CHANNELS 3 Yrotation Xrotation Zrotation
  JOINT LeftKnee
  {
   OFFSET 0.000000 -40.663400 -0.000500
   CHANNELS 3 Yrotation Xrotation Zrotation
   JOINT LeftAnkle
   {
    OFFSET 0.000000 -39.523700 -0.000900
    CHANNELS 3 Yrotation Xrotation Zrotation
    JOINT LeftToe
    {
     OFFSET 0.000000 -6.418000 14.485300
     CHANNELS 3 Yrotation Xrotation Zrotation
     End Site
     {
      OFFSET 0.000000 -1.465200 6.326400
     }
    }
   }
  }
 }
}
MOTION
Frames: 7
Frame Time: 0.008333
0.000000 86.422400 0.000000 0.000000 -5.767877 0.000000 0.000000 11.653817 0.000000 0.000000 -5.885947 0.000000 0.000000 -0.000000 0.000000 0.000000 -0.000000 0.000000 0.000000 12.528835 0.000000 0.000000 0.711642 0.000000 0.000000 -0.000000 0.000000 0.000000 0.000000 -90.000000 0.000000 -2.309062 0.000000 0.000000 2.309062 0.000000 0.000000 -0.000000 0.000000 0.000000 -0.000000 90.000000 0.000000 -2.309062 0.000000 0.000000 2.309062 0.000000 0.000000 8.520406 0.000000 0.000000 1.905762 0.000000 -0.000000 -4.658285 0.000000 0.000000 -0.000000 0.000000 0.000000 8.520406 0.000000 0.000000 1.905762 0.000000 -0.000000 -4.658285 0.000000 0.000000 -0.000000 0.000000
-15.186706 126.903384 11.021254 -178.136222 -47.016109 -3.946823 4.161663 26.937877 3.440177 0.588706 4.707445 0.441873 0.950341 7.444819 0.723068 3.204926 21.965948 2.599248 0.619077 9.161493 3.205978 -0.077346 -16.033900 3.341639 1.966193 -1.112969 2.756226 2.186463 -17.868229 -13.645186 -85.804632 -37.831351 149.619565 2.725288 17.106544 41.421908 -10.296416 -5.692636 -0.396282 -8.052455 -16.392924 13.193181 63.113587 -35.399548 -128.045881 -9.107010 7.937876 -52.165545 1.331675 -26.211828 3.286588 -12.549121 73.947703 -16.541306 9.243863 -6.988121 9.646565 -0.002118 -0.003430 -0.000938 7.545121 -6.520940 6.715087 144.581433 69.682588 161.595751 -3.653934 -15.060514 -11.266751 0.003671 -0.002995 0.001627
-15.187436 126.902539 11.021912 -178.129200 -47.006706 -3.951442 4.157940 26.942957 3.427849 0.590020 4.713711 0.429622 0.948872 7.448150 0.714564 3.209820 21.959515 2.608098 0.594798 9.161002 3.253489 -0.215933 -16.003716 3.472092 1.974650 -1.136964 2.765481 2.193547 -17.869815 -13.660043 -85.808083 -37.823159 149.617329 2.755643 17.153047 41.463258 -10.292452 -5.708710 -0.393384 -8.048656 -16.391093 13.178923 63.099496 -35.391532 -128.047238 -9.115241 7.948056 -52.176218 1.333005 -26.222130 3.287245 -12.535075 73.951462 -16.526011 9.224404 -6.984684 9.649886 -0.004952 -0.002716 -0.002194 7.536841 -6.530371 6.711980 144.578719 69.680787 161.591775 -3.656409 -15.054443 -11.274852 0.002728 -0.000429 0.001209
-15.188068 126.901636 11.022752 -178.113858 -46.996470 -3.963235 4.151201 26.940112 3.417302 0.587979 4.708596 0.438501 0.945593 7.452532 0.703270 3.197572 21.969841 2.576210 0.518181 9.173371 3.358861 -0.283469 -15.994828 3.549098 1.990015 -1.159386 2.793859 2.203167 -17.873219 -13.673915 -85.813012 -37.815815 149.613478 2.759146 17.162152 41.474317 -10.283495 -5.716155 -0.369932 -8.032099 -16.403074 13.143771 63.066620 -35.391220 -128.038310 -9.132000 7.961411 -52.179733 1.329754 -26.234098 3.291487 -12.548331 73.956543 -16.535773 9.199359 -6.982027 9.651273 -0.008599 -0.003650 -0.003810 7.523881 -6.541094 6.709937 144.575311 69.678956 161.587227 -3.656152 -15.051403 -11.278713 0.002298 0.001484 0.001018
-15.188519 126.901595 11.022942 -178.111974 -46.994391 -3.966641 4.149176 26.946732 3.401926 0.591484 4.706461 0.441756 0.940559 7.450082 0.704888 3.199435 21.968454 2.574263 0.421323 9.195327 3.437189 -0.352767 -15.982670 3.623228 1.984710 -1.166930 2.762715 2.210058 -17.879142 -13.652237 -85.819975 -37.812922 149.611492 2.748011 17.157954 41.475165 -10.288542 -5.713975 -0.373813 -8.022583 -16.407538 13.144317 63.068578 -35.380100 -128.052590 -9.142188 7.964771 -52.184737 1.339516 -26.236370 3.293911 -12.570911 73.956861 -16.553220 9.206911 -6.983751 9.652472 -0.007675 -0.002836 -0.003401 7.521447 -6.544400 6.711337 144.574736 69.677447 161.585473 -3.656647 -15.048364 -11.278092 0.001746 0.001466 0.000774
-15.187738 126.901588 11.023333 -178.111894 -46.992902 -3.976066 4.150109 26.946839 3.405996 0.583787 4.711208 0.427869 0.947633 7.446858 0.712923 3.206143 21.965000 2.579445 0.338012 9.218218 3.496945 -0.447506 -15.963337 3.712324 1.986205 -1.168833 2.751055 2.212082 -17.887062 -13.656911 -85.830034 -37.814541 149.610450 2.760614 17.168645 41.492554 -10.295886 -5.711368 -0.380571 -8.019024 -16.419129 13.113253 63.067520 -35.395820 -128.044757 -9.149165 7.970484 -52.188198 1.342803 -26.237053 3.297343 -12.560286 73.954225 -16.545274 9.297021 -6.993277 9.651342 0.006280 -0.002003 0.002783 7.519230 -6.547752 6.719073 144.592329 69.675134 161.602911 -3.649256 -15.049537 -11.279784 0.000899 0.001141 0.000398
-15.187523 126.901607 11.023802 -178.104632 -46.992238 -3.987234 4.144635 26.949241 3.403264 0.585965 4.709414 0.431479 0.945426 7.448720 0.708034 3.198461 21.968438 2.575054 0.270703 9.237426 3.560520 -0.541137 -15.942127 3.800881 2.000803 -1.176198 2.753611 2.213105 -17.896017 -13.672051 -85.838735 -37.815292 149.607293 2.772836 17.175546 41.507676 -10.293307 -5.712924 -0.385421 -8.012943 -16.421402 13.123232 63.085965 -35.387346 -128.068070 -9.150051 7.984615 -52.183252 1.338722 -26.237449 3.301567 -12.556746 73.953605 -16.544673 9.342233 -6.997687 9.649745 0.013409 -0.002523 0.005941 7.515494 -6.551106 6.724591 144.595516 69.672990 161.608353 -3.648328 -15.049823 -11.279913 0.000685 0.000875 0.000303
